# xmcd
#
# Track frame offsets: 
#        150
#        13190
#        28172
#        42222
#        56842
#        70227
#        82770
#        96912
#        109530
#        124370
#        137095
#        149637
#        160680
#        172930
#        189382
#        206407
#        220730
#        234067
#
# Disc length: 3293 seconds
#
# Revision: 0
# Processed by: cddbd v1.5.2PL0 Copyright (c) Steve Scherf et al.
# Submitted via: ExactAudioCopy v0.95b4
#
DISCID=f50cdb12
DTITLE=Tommy Scott - Country Holiday
DYEAR=1995
DGENRE=Country
TTITLE0=I Never Loved No One But You
TTITLE1=Does My Ring Hurt Your Finger - I'd Rather Love You - All I Ha
TTITLE1=ve To Offer You
TTITLE2=Rose Marie
TTITLE3=Distant Drums
TTITLE4=This World Is Not My Home
TTITLE5=Cry
TTITLE6=Any Time - Someday You'll Want Me To Want You
TTITLE7=Crying Time - Together Again
TTITLE8=But When I Dream
TTITLE9=Lovesick Blues
TTITLE10=Rock of Ages
TTITLE11=Kiss An Angel Good Moring
TTITLE12=There Goes My Everyting
TTITLE13=Pretty Woman
TTITLE14=Blanket On The Ground
TTITLE15=Stop
TTITLE16=If I Had My Life To Live Over
TTITLE17=Let Me Be There
EXTD=
EXTT0=
EXTT1=
EXTT2=
EXTT3=
EXTT4=
EXTT5=
EXTT6=
EXTT7=
EXTT8=
EXTT9=
EXTT10=
EXTT11=
EXTT12=
EXTT13=
EXTT14=
EXTT15=
EXTT16=
EXTT17=
PLAYORDER=
